<?xml version="1.0" encoding="UTF-8"?>
<svg width="49px" height="44px" viewBox="0 0 49 44" version="1.1" xmlns="http://www.w3.org/2000/svg" xmlns:xlink="http://www.w3.org/1999/xlink">
    <!-- Generator: Sketch 54.1 (76490) - https://sketchapp.com -->
    <title>CartIcon</title>
    <desc>Created with Sketch.</desc>
    <defs>
        <filter x="-2.2%" y="-38.3%" width="104.5%" height="176.7%" filterUnits="objectBoundingBox" id="filter-1">
            <feOffset dx="0" dy="2" in="SourceAlpha" result="shadowOffsetOuter1"></feOffset>
            <feGaussianBlur stdDeviation="5" in="shadowOffsetOuter1" result="shadowBlurOuter1"></feGaussianBlur>
            <feColorMatrix values="0 0 0 0 0   0 0 0 0 0   0 0 0 0 0  0 0 0 0.195804196 0" type="matrix" in="shadowBlurOuter1" result="shadowMatrixOuter1"></feColorMatrix>
            <feMerge>
                <feMergeNode in="shadowMatrixOuter1"></feMergeNode>
                <feMergeNode in="SourceGraphic"></feMergeNode>
            </feMerge>
        </filter>
    </defs>
    <g id="NewEngenColorCart" stroke="none" stroke-width="1" fill="none" fill-rule="evenodd">
        <g id="List" transform="translate(-952.000000, -8.000000)" fill="#FFFFFF" fill-rule="nonzero">
            <g id="HeaderGroup" filter="url(#filter-1)">
                <g id="Cart" transform="translate(961.000000, 9.000000)">
                    <path d="M26.9010866,22.1556196 L29.9494297,12.391155 C30.0547634,12.0566393 29.9937632,11.6918643 29.7830958,11.4068943 C29.5750952,11.1249169 29.2427608,10.956329 28.8907596,10.956329 L6.9920225,10.956329 L5.74768516,7.71059632 C5.58135129,7.28197739 5.17134997,7 4.71134849,7 L1.10867023,7 C0.496001596,7.00066504 0,7.49545555 0,8.10629572 C0,8.71447573 0.496001596,9.21225892 1.10867023,9.21225892 L3.94934604,9.21225892 L5.1686833,12.3914875 C5.17134997,12.4024607 5.17434998,12.4134338 5.17968333,12.4217468 L5.21568345,12.5158501 L8.94869546,22.2527156 C8.94869546,22.2553757 8.94869546,22.2583684 8.95136214,22.2583684 L9.95169869,24.870982 C8.8986953,25.4073376 8.17535964,26.499335 8.17535964,27.75726 C8.17535964,29.5458878 9.633031,31 11.4260368,31 C13.2163759,31 14.6740472,29.5458878 14.6740472,27.75726 C14.6740472,27.3978054 14.6157137,27.0523166 14.5050467,26.7287741 L21.1674014,26.7287741 C21.0564011,27.0523166 20.9984009,27.3978054 20.9984009,27.75726 C20.9984009,29.5458878 22.4560723,31 24.249078,31 C26.0394171,31 27.4970885,29.5458878 27.4970885,27.75726 C27.4970885,25.9712924 26.0394171,24.5171802 24.249078,24.5171802 L12.1883726,24.5171802 L11.5813706,22.9330525 L25.8424165,22.9330525 C26.327418,22.9323875 26.7570861,22.6174906 26.9010866,22.1556196 Z M24.0012916,27 C24.5515015,27 25,27.4481757 25,27.9987084 C25,28.5518243 24.5518243,29 24.0012916,29 C23.4481757,29 23,28.5518243 23,27.9987084 C23,27.4481757 23.4481757,27 24.0012916,27 Z M21.2665785,13 L27,13 L25.9439391,16 L21,16 L21.2665785,13 Z M8,13 L13.7537797,13 L14,16 L9.20826905,16 L8,13 Z M12,27.9987084 C12,28.5518243 11.5518243,29 11.0012916,29 C10.4481757,29 10,28.5518243 10,27.9987084 C10,27.4484985 10.4481757,27 11.0012916,27 C11.5518243,27.0003229 12,27.4484985 12,27.9987084 Z M11.1463463,21 L10,18 L14.7652813,18 L15,21 L11.1463463,21 Z M19.7391587,21 L15.2550689,21 L15,18 L20,18 L19.7391587,21 Z M19.7476232,16 L15.2495622,16 L15,13 L20,13 L19.7476232,16 Z M21,21 L21.240094,18 L26,18 L25.0453324,21 L21,21 Z" id="CartIcon"></path>
                </g>
            </g>
        </g>
    </g>
</svg>