<?xml version="1.0" encoding="UTF-8"?>
<svg width="47px" height="48px" viewBox="0 0 47 48" version="1.1" xmlns="http://www.w3.org/2000/svg" xmlns:xlink="http://www.w3.org/1999/xlink">
    <!-- Generator: Sketch 54.1 (76490) - https://sketchapp.com -->
    <title>NewEngen-Logo</title>
    <desc>Created with Sketch.</desc>
    <defs>
        <filter x="-2.2%" y="-38.3%" width="104.5%" height="176.7%" filterUnits="objectBoundingBox" id="filter-1">
            <feOffset dx="0" dy="2" in="SourceAlpha" result="shadowOffsetOuter1"></feOffset>
            <feGaussianBlur stdDeviation="5" in="shadowOffsetOuter1" result="shadowBlurOuter1"></feGaussianBlur>
            <feColorMatrix values="0 0 0 0 0   0 0 0 0 0   0 0 0 0 0  0 0 0 0.195804196 0" type="matrix" in="shadowBlurOuter1" result="shadowMatrixOuter1"></feColorMatrix>
            <feMerge>
                <feMergeNode in="shadowMatrixOuter1"></feMergeNode>
                <feMergeNode in="SourceGraphic"></feMergeNode>
            </feMerge>
        </filter>
    </defs>
    <g id="NewEngenColorCart" stroke="none" stroke-width="1" fill="none" fill-rule="evenodd">
        <g id="List" transform="translate(-15.000000, -8.000000)" fill="#FFFFFF" fill-rule="nonzero">
            <g id="HeaderGroup" filter="url(#filter-1)">
                <path d="M44.8571334,24.98983 L51.5532802,21.1830597 C51.5612297,21.4323696 51.5691792,21.6659887 51.5762454,21.8996077 C51.6009773,22.7556298 51.6257091,23.6116519 51.650441,24.467674 C51.6672233,25.0647973 51.6804725,25.6627924 51.6972548,26.2599157 C51.7193368,27.0584048 51.7458352,27.8560221 51.7679172,28.6536394 C51.7855828,29.2446608 51.7979488,29.8356821 51.8147311,30.4275752 C51.8376964,31.2347813 51.8633115,32.0419875 51.8862768,32.8500654 C51.8986427,33.2728461 51.9074755,33.6964986 51.9189581,34.1192794 C51.9445733,35.0302194 51.9693051,35.9411594 51.9984534,36.8520994 C52.0083266,36.9222107 51.9702043,36.9903582 51.9048257,37.0194683 C51.2432488,37.3882028 50.5852051,37.7612959 49.9262781,38.1326456 C49.8953633,38.1500799 49.8635652,38.1657707 49.8220511,38.1866918 C46.4561649,32.541479 43.0908675,26.8988813 39.726159,21.2588987 L39.7014272,21.2588987 L39.7014272,27.9318611 L41.9864729,26.6556734 C42.4095641,27.3783234 42.8291222,28.0957431 43.2530967,28.82188 C43.2186487,28.8428011 43.1895005,28.8619788 43.159469,28.8785413 C42.0300481,29.5050123 40.9000384,30.1311928 39.7694398,30.7570827 C39.7108147,30.7826439 39.675266,30.8422853 39.6811118,30.9052739 C39.6811118,31.5974139 39.6811118,32.289554 39.6811118,32.981694 C39.6764009,34.8924887 39.6713957,36.8032835 39.666096,38.7140782 C39.666096,39.3132355 39.666096,39.9115211 39.666096,40.5089351 C39.6625629,41.6532035 39.6575576,42.7977626 39.6510802,43.9426122 C39.6519945,43.9818185 39.6359305,44.0195502 39.6069162,44.0463461 C39.0522163,44.3636496 38.4948665,44.6774662 37.928684,45 L32.1264167,35.0572425 L25.5018156,38.7184367 C25.4953382,38.4923725 25.4888608,38.2674706 25.4823835,38.0437309 C25.4523519,37.1069301 25.4229093,36.1704199 25.3940554,35.2342002 C25.3755066,34.6562545 25.3604908,34.0774372 25.3419419,33.4994915 C25.3077884,32.4237978 25.2727516,31.3486852 25.2368316,30.2741537 C25.2182827,29.696208 25.2023836,29.1182624 25.184718,28.5403167 L25.086674,25.4553247 C25.0601755,24.6481186 25.0398601,23.8443992 25.0027623,23.0337062 C24.9850038,22.9129029 25.0542902,22.7960434 25.1697023,22.752143 C25.8206797,22.3921255 26.4663575,22.023391 27.1129186,21.6572715 L27.1932971,21.6136859 L37.1195993,38.6120878 L37.1407981,38.6077292 L37.1407981,32.2215604 L35.0456576,33.382682 C34.6207998,32.6748511 34.1994752,31.9696353 33.7728509,31.253959 C33.8064155,31.2330379 33.8346805,31.2147319 33.8611789,31.1981694 C34.929359,30.6013366 35.9975391,30.0047944 37.0657193,29.4085428 C37.1247643,29.3820381 37.1602452,29.32146 37.1540473,29.2577365 C37.1540473,28.3494116 37.1593469,27.4410867 37.1602302,26.5318902 C37.1602302,24.9046927 37.1617024,23.2748801 37.1646466,21.6424524 C37.1646466,20.7890455 37.1699463,19.9356385 37.1717129,19.0813599 C37.1787791,18.0724975 37.1823122,17.0639256 37.1823122,16.0556443 C37.1770421,15.9938712 37.212713,15.935785 37.2706402,15.9118117 C37.7882424,15.622403 38.3049613,15.3286358 38.8216802,15.0400988 L38.8985256,15 L44.8571334,24.98983 Z M46.1502555,27.1569083 L49.3503795,32.5188145 L49.3662785,32.5118408 L49.3662785,25.3515909 L46.1502555,27.1569083 Z M27.6693851,27.4184222 L27.6420034,27.4227808 C27.7612462,29.7668168 27.8813723,32.1117245 28.0014984,34.4714514 L30.881875,32.9189307 C29.8072175,31.0801976 28.7363875,29.2466948 27.6693851,27.4184222 Z M28,21.1834793 L36,17 L36,17.2132666 C36,17.9456821 35.9978079,18.6780976 35.9934238,19.4105131 C35.9993944,19.4573501 35.9714539,19.5023213 35.9243732,19.5216521 L29.2100288,22.9797247 C29.1993424,22.9857322 29.1878339,22.9902378 29.1672832,23 L28,21.1834793 Z M40.0219553,42 C40.0219553,41.9557611 40.0154367,41.9340165 40.0154367,41.9122719 C40.0105477,41.1699575 40.0059303,40.4273932 40.0015845,39.6845789 C39.9932083,39.6380567 40.0186103,39.591914 40.0643267,39.5706073 C42.323048,38.3874031 44.581226,37.2026993 46.8388608,36.0164959 C46.8470092,36.011997 46.8551575,36.0089978 46.8755284,36 L48,37.7868033 L40.0219553,42 Z" id="NewEngen-Logo"></path>
            </g>
        </g>
    </g>
</svg>