<?xml version="1.0" encoding="UTF-8"?>
<svg width="15px" height="19px" viewBox="0 0 15 19" version="1.1" xmlns="http://www.w3.org/2000/svg" xmlns:xlink="http://www.w3.org/1999/xlink">
    <!-- Generator: Sketch 54.1 (76490) - https://sketchapp.com -->
    <title>TrashIcon</title>
    <desc>Created with Sketch.</desc>
    <g id="NewEngenColorCart" stroke="none" stroke-width="1" fill="none" fill-rule="evenodd">
        <g id="Cart" transform="translate(-118.000000, -163.000000)" fill="#FFFFFF" fill-rule="nonzero">
            <g id="CurrentColorCart" transform="translate(20.000000, 99.000000)">
                <g id="Colors" transform="translate(0.000000, 54.000000)">
                    <g id="Palette">
                        <path d="M111.269231,12.3076923 C112.224713,12.3086464 112.999046,13.0829795 113,14.0384615 L113,15.1923077 C113,15.5109335 112.741703,15.7692308 112.423077,15.7692308 L111.846154,15.7692308 L111.846154,26.7307692 C111.8452,27.6862512 111.070867,28.4605844 110.115385,28.4615385 L100.884615,28.4615385 C99.9291334,28.4605844 99.1548002,27.6862512 99.1538462,26.7307692 L99.1538462,15.7692308 L98.5769231,15.7692308 C98.2582973,15.7692308 98,15.5109335 98,15.1923077 L98,14.0384615 C98.0009541,13.0829795 98.7752872,12.3086464 99.7307692,12.3076923 L103.192308,12.3076923 L103.192308,11.7307692 C103.193262,10.7752872 103.967595,10.0009541 104.923077,10 L106.076923,10 C107.032405,10.0009541 107.806738,10.7752872 107.807692,11.7307692 L107.807692,12.3076923 L111.269231,12.3076923 Z M104.346154,11.7307692 L104.346154,12.3076923 L106.653846,12.3076923 L106.653846,11.7307692 C106.653846,11.4121434 106.395549,11.1538462 106.076923,11.1538462 L104.923077,11.1538462 C104.604451,11.1538462 104.346154,11.4121434 104.346154,11.7307692 Z M110.692308,26.7307692 L110.692308,15.7692308 L100.307692,15.7692308 L100.307692,26.7307692 C100.307692,27.049395 100.56599,27.3076923 100.884615,27.3076923 L110.115385,27.3076923 C110.43401,27.3076923 110.692308,27.049395 110.692308,26.7307692 Z M111.846154,14.6153846 L111.846154,14.0384615 C111.846154,13.7198357 111.587857,13.4615385 111.269231,13.4615385 L99.7307692,13.4615385 C99.4121434,13.4615385 99.1538462,13.7198357 99.1538462,14.0384615 L99.1538462,14.6153846 L111.846154,14.6153846 Z M105.5,25 C105.181374,25 104.923077,24.7417027 104.923077,24.4230769 L104.923077,18.6538462 C104.923077,18.3352203 105.181374,18.0769231 105.5,18.0769231 C105.818626,18.0769231 106.076923,18.3352203 106.076923,18.6538462 L106.076923,24.4230769 C106.076923,24.7417027 105.818626,25 105.5,25 Z M108.384615,25 C108.06599,25 107.807692,24.7417027 107.807692,24.4230769 L107.807692,18.6538462 C107.807692,18.3352203 108.06599,18.0769231 108.384615,18.0769231 C108.703241,18.0769231 108.961538,18.3352203 108.961538,18.6538462 L108.961538,24.4230769 C108.961538,24.7417027 108.703241,25 108.384615,25 Z M102.615385,25 C102.296759,25 102.038462,24.7417027 102.038462,24.4230769 L102.038462,18.6538462 C102.038462,18.3352203 102.296759,18.0769231 102.615385,18.0769231 C102.93401,18.0769231 103.192308,18.3352203 103.192308,18.6538462 L103.192308,24.4230769 C103.192308,24.7417027 102.93401,25 102.615385,25 Z" id="TrashIcon"></path>
                    </g>
                </g>
            </g>
        </g>
    </g>
</svg>